<svg xmlns="http://www.w3.org/2000/svg" viewBox="0 0 320 200" role="img" aria-label="Marice cuddling with Alice, Olive, and Beatrice in bed">
  <defs>
    <linearGradient id="bedFrame" x1="0" x2="0" y1="0" y2="1">
      <stop offset="0%" stop-color="#ecd9bf"/>
      <stop offset="60%" stop-color="#c99d73"/>
      <stop offset="100%" stop-color="#9e704a"/>
    </linearGradient>
    <linearGradient id="blanket" x1="0" x2="0" y1="0" y2="1">
      <stop offset="0%" stop-color="#a89ae0"/>
      <stop offset="55%" stop-color="#7c6db7"/>
      <stop offset="100%" stop-color="#4f427f"/>
    </linearGradient>
    <radialGradient id="blanketGlow" cx="50%" cy="0%" r="90%">
      <stop offset="0%" stop-color="#ffffff" stop-opacity="0.22"/>
      <stop offset="100%" stop-color="#ffffff" stop-opacity="0"/>
    </radialGradient>
  </defs>

  <rect width="320" height="200" rx="16" fill="url(#bedFrame)" stroke="#4b3727" stroke-width="6"/>
  <rect x="14" y="16" width="292" height="50" rx="14" fill="#f6efe2" stroke="#d4c1a5" stroke-width="4"/>

  <!-- blanket and pillows -->
  <rect x="0" y="88" width="320" height="112" fill="url(#blanket)"/>
  <rect x="0" y="88" width="320" height="112" fill="url(#blanketGlow)"/>
  <path d="M0 101 C42 86, 88 96, 132 102 C172 106, 216 92, 262 99 C288 104, 305 110, 320 101 L320 200 L0 200 Z" fill="#6c5aa4" opacity="0.55"/>

  <g transform="translate(22 39)">
    <!-- Marice: clearly human -->
    <g id="marice" transform="translate(10 0)">
      <ellipse cx="42" cy="38" rx="34" ry="24" fill="#4a2d20" opacity="0.95"/>
      <path d="M14 58 C20 92, 66 92, 72 58" fill="#f3c7a2" stroke="#a86f4d" stroke-width="2.5"/>
      <ellipse cx="43" cy="36" rx="27" ry="28" fill="#ffdcbc" stroke="#a86f4d" stroke-width="2.5"/>
      <path d="M15 35 C16 5, 70 4, 72 34 C67 18, 55 13, 43 13 C30 13, 19 20, 15 35 Z" fill="#5a3423"/>
      <path d="M23 35 q4 -4 9 0" stroke="#3c2418" stroke-width="2" fill="none" stroke-linecap="round"/>
      <path d="M54 35 q4 -4 9 0" stroke="#3c2418" stroke-width="2" fill="none" stroke-linecap="round"/>
      <ellipse cx="33" cy="39" rx="4.5" ry="5" fill="#2f241e"/>
      <ellipse cx="54" cy="39" rx="4.5" ry="5" fill="#2f241e"/>
      <path d="M43 42 l-2 8 h4" stroke="#b88467" stroke-width="1.8" fill="none" stroke-linecap="round"/>
      <path d="M33 53 q10 8 20 0" stroke="#ad615d" stroke-width="2.4" fill="none" stroke-linecap="round"/>
      <circle cx="24" cy="48" r="3.2" fill="#ffc8cf" opacity="0.75"/>
      <circle cx="62" cy="48" r="3.2" fill="#ffc8cf" opacity="0.75"/>
    </g>

    <!-- Alice (orange tabby) -->
    <g id="alice" transform="translate(84 8)">
      <polygon points="18,10 8,1 5,18" fill="#f3aa4a" stroke="#b06c1f" stroke-width="2"/>
      <polygon points="55,10 65,1 68,18" fill="#f3aa4a" stroke="#b06c1f" stroke-width="2"/>
      <polygon points="17,11 10,5 8,15" fill="#ffd8a8"/>
      <polygon points="56,11 63,5 65,15" fill="#ffd8a8"/>
      <ellipse cx="36" cy="30" rx="28" ry="24" fill="#f4a72d" stroke="#b06c1f" stroke-width="3"/>
      <path d="M20 26 l6 -3 M28 24 l6 -3 M46 24 l6 3 M54 26 l6 3" stroke="#d48722" stroke-width="2" stroke-linecap="round"/>
      <ellipse cx="36" cy="35" rx="12" ry="8" fill="#ffe1ba"/>
      <ellipse cx="27" cy="30" rx="5" ry="4" fill="#fff"/>
      <ellipse cx="45" cy="30" rx="5" ry="4" fill="#fff"/>
      <circle cx="27" cy="30" r="2.2" fill="#2e2e2e"/>
      <circle cx="45" cy="30" r="2.2" fill="#2e2e2e"/>
      <polygon points="36,34 33,38 39,38" fill="#e78ea0"/>
      <path d="M32 38 q4 3 8 0" stroke="#a75c20" stroke-width="2" fill="none" stroke-linecap="round"/>
      <line x1="10" y1="34" x2="24" y2="34" stroke="#a75c20" stroke-width="2" stroke-linecap="round"/>
      <line x1="10" y1="38" x2="24" y2="37" stroke="#a75c20" stroke-width="2" stroke-linecap="round"/>
      <line x1="48" y1="34" x2="62" y2="34" stroke="#a75c20" stroke-width="2" stroke-linecap="round"/>
      <line x1="48" y1="37" x2="62" y2="38" stroke="#a75c20" stroke-width="2" stroke-linecap="round"/>
    </g>

    <!-- Olive (gray cat) -->
    <g id="olive" transform="translate(158 10)">
      <polygon points="16,10 8,2 5,18" fill="#9a9a9a" stroke="#676767" stroke-width="2"/>
      <polygon points="52,10 60,2 63,18" fill="#9a9a9a" stroke="#676767" stroke-width="2"/>
      <polygon points="16,10 11,6 10,14" fill="#d9d9d9"/>
      <polygon points="52,10 57,6 58,14" fill="#d9d9d9"/>
      <ellipse cx="34" cy="30" rx="26" ry="23" fill="#9b9b9b" stroke="#676767" stroke-width="3"/>
      <ellipse cx="34" cy="35" rx="11" ry="7" fill="#e6e6e6"/>
      <ellipse cx="25" cy="30" rx="4.5" ry="3.8" fill="#fff"/>
      <ellipse cx="43" cy="30" rx="4.5" ry="3.8" fill="#fff"/>
      <circle cx="25" cy="30" r="2" fill="#2c2c2c"/>
      <circle cx="43" cy="30" r="2" fill="#2c2c2c"/>
      <polygon points="34,34 31,38 37,38" fill="#d6999c"/>
      <path d="M30 38 q4 3 8 0" stroke="#5e5e5e" stroke-width="2" fill="none" stroke-linecap="round"/>
      <line x1="8" y1="34" x2="22" y2="34" stroke="#5e5e5e" stroke-width="2" stroke-linecap="round"/>
      <line x1="8" y1="38" x2="22" y2="37" stroke="#5e5e5e" stroke-width="2" stroke-linecap="round"/>
      <line x1="46" y1="34" x2="60" y2="34" stroke="#5e5e5e" stroke-width="2" stroke-linecap="round"/>
      <line x1="46" y1="37" x2="60" y2="38" stroke="#5e5e5e" stroke-width="2" stroke-linecap="round"/>
    </g>

    <!-- Beatrice (black cat with pink eyes) -->
    <g id="beatrice" transform="translate(220 9)">
      <polygon points="14,12 7,3 4,19" fill="#232323" stroke="#090909" stroke-width="2"/>
      <polygon points="48,12 55,3 58,19" fill="#232323" stroke="#090909" stroke-width="2"/>
      <polygon points="14,12 10,8 8,16" fill="#4f4f4f"/>
      <polygon points="48,12 52,8 54,16" fill="#4f4f4f"/>
      <ellipse cx="31" cy="32" rx="25" ry="23" fill="#272727" stroke="#090909" stroke-width="3"/>
      <ellipse cx="31" cy="37" rx="10" ry="7" fill="#404040"/>
      <ellipse cx="22" cy="32" rx="4.5" ry="3.6" fill="#ffd3ea"/>
      <ellipse cx="40" cy="32" rx="4.5" ry="3.6" fill="#ffd3ea"/>
      <circle cx="22" cy="32" r="2" fill="#101010"/>
      <circle cx="40" cy="32" r="2" fill="#101010"/>
      <polygon points="31,36 28,40 34,40" fill="#ff9fcf"/>
      <path d="M27 40 q4 3 8 0" stroke="#ff9fcf" stroke-width="2" fill="none" stroke-linecap="round"/>
      <line x1="6" y1="35" x2="20" y2="35" stroke="#ffb8df" stroke-width="2" stroke-linecap="round"/>
      <line x1="6" y1="39" x2="20" y2="38" stroke="#ffb8df" stroke-width="2" stroke-linecap="round"/>
      <line x1="42" y1="35" x2="56" y2="35" stroke="#ffb8df" stroke-width="2" stroke-linecap="round"/>
      <line x1="42" y1="38" x2="56" y2="39" stroke="#ffb8df" stroke-width="2" stroke-linecap="round"/>
    </g>
  </g>
</svg>
