<svg xmlns="http://www.w3.org/2000/svg" viewBox="0 0 320 200" role="img" aria-label="Marice cuddling with Alice, Olive, and Beatrice in bed">
  <defs>
    <linearGradient id="bedFrame" x1="0" x2="0" y1="0" y2="1">
      <stop offset="0%" stop-color="#ecd9bf"/>
      <stop offset="60%" stop-color="#c99d73"/>
      <stop offset="100%" stop-color="#9e704a"/>
    </linearGradient>
    <linearGradient id="blanket" x1="0" x2="0" y1="0" y2="1">
      <stop offset="0%" stop-color="#a89ae0"/>
      <stop offset="55%" stop-color="#7c6db7"/>
      <stop offset="100%" stop-color="#4f427f"/>
    </linearGradient>
    <radialGradient id="blanketGlow" cx="50%" cy="0%" r="90%">
      <stop offset="0%" stop-color="#ffffff" stop-opacity="0.22"/>
      <stop offset="100%" stop-color="#ffffff" stop-opacity="0"/>
    </radialGradient>
  </defs>

  <rect width="320" height="200" rx="16" fill="url(#bedFrame)" stroke="#4b3727" stroke-width="6"/>
  <rect x="14" y="16" width="292" height="50" rx="14" fill="#f6efe2" stroke="#d4c1a5" stroke-width="4"/>

  <!-- blanket and pillows -->
  <rect x="0" y="88" width="320" height="112" fill="url(#blanket)"/>
  <rect x="0" y="88" width="320" height="112" fill="url(#blanketGlow)"/>
  <path d="M0 101 C42 86, 88 96, 132 102 C172 106, 216 92, 262 99 C288 104, 305 110, 320 101 L320 200 L0 200 Z" fill="#6c5aa4" opacity="0.55"/>

  <g transform="translate(22 39)">
    <!-- Marice: female with long brown hair -->
    <g id="marice" transform="translate(10 0)">
      <!-- Long hair behind head (back layer) -->
      <path d="M10 30 C8 50, 4 70, 8 90 C10 95, 16 96, 18 90 C14 70, 16 50, 18 35 Z" fill="#5a3423"/>
      <path d="M68 30 C72 50, 76 70, 74 90 C72 95, 66 96, 64 90 C68 70, 66 50, 64 35 Z" fill="#5a3423"/>
      <path d="M8 80 C6 90, 2 100, 6 110 C8 112, 12 112, 14 108 C10 98, 12 90, 14 82 Z" fill="#4a2d1c" opacity="0.9"/>
      <path d="M72 80 C74 90, 78 100, 76 110 C74 112, 70 112, 68 108 C72 98, 70 90, 68 82 Z" fill="#4a2d1c" opacity="0.9"/>
      <!-- Head shadow -->
      <ellipse cx="42" cy="38" rx="34" ry="24" fill="#4a2d20" opacity="0.95"/>
      <!-- Neck -->
      <path d="M14 58 C20 92, 66 92, 72 58" fill="#f3c7a2" stroke="#a86f4d" stroke-width="2.5"/>
      <!-- Face -->
      <ellipse cx="43" cy="36" rx="27" ry="28" fill="#ffdcbc" stroke="#a86f4d" stroke-width="2.5"/>
      <!-- Long brown hair (front layer — frames the face) -->
      <path d="M15 35 C16 5, 70 4, 72 34 C67 18, 55 13, 43 13 C30 13, 19 20, 15 35 Z" fill="#5a3423"/>
      <!-- Left hair strand flowing down -->
      <path d="M15 35 C12 45, 10 60, 12 80 C13 88, 17 92, 20 85 C18 68, 17 52, 18 40 Z" fill="#5a3423"/>
      <!-- Right hair strand flowing down -->
      <path d="M72 34 C74 45, 76 60, 74 80 C73 88, 69 92, 66 85 C68 68, 69 52, 68 40 Z" fill="#5a3423"/>
      <!-- Hair highlight strands -->
      <path d="M20 20 C22 40, 18 60, 20 78" stroke="#6b4530" stroke-width="1.5" fill="none" opacity="0.5"/>
      <path d="M66 20 C64 40, 68 60, 66 78" stroke="#6b4530" stroke-width="1.5" fill="none" opacity="0.5"/>
      <!-- Eyebrows (thinner, more arched) -->
      <path d="M25 30 q6 -5 12 0" stroke="#4a3020" stroke-width="1.8" fill="none" stroke-linecap="round"/>
      <path d="M50 30 q6 -5 12 0" stroke="#4a3020" stroke-width="1.8" fill="none" stroke-linecap="round"/>
      <!-- Left eye with lashes -->
      <ellipse cx="33" cy="39" rx="4.5" ry="5" fill="#6b3d24"/>
      <ellipse cx="33" cy="39" rx="2.8" ry="3.2" fill="#2f241e"/>
      <circle cx="34.5" cy="37.5" r="1.4" fill="white" opacity="0.85"/>
      <path d="M28 36 l-2 -3" stroke="#3a2218" stroke-width="1.5" stroke-linecap="round"/>
      <path d="M30 34.5 l-1 -3" stroke="#3a2218" stroke-width="1.5" stroke-linecap="round"/>
      <!-- Right eye with lashes -->
      <ellipse cx="54" cy="39" rx="4.5" ry="5" fill="#6b3d24"/>
      <ellipse cx="54" cy="39" rx="2.8" ry="3.2" fill="#2f241e"/>
      <circle cx="55.5" cy="37.5" r="1.4" fill="white" opacity="0.85"/>
      <path d="M58 34.5 l1 -3" stroke="#3a2218" stroke-width="1.5" stroke-linecap="round"/>
      <path d="M60 36 l2 -3" stroke="#3a2218" stroke-width="1.5" stroke-linecap="round"/>
      <!-- Nose -->
      <path d="M43 42 l-2 8 h4" stroke="#b88467" stroke-width="1.8" fill="none" stroke-linecap="round"/>
      <!-- Smile -->
      <path d="M31 52 q12 10 22 0" stroke="#c25a57" stroke-width="2.8" fill="none" stroke-linecap="round"/>
      <!-- Blush cheeks -->
      <circle cx="23" cy="48" r="4.5" fill="#ffc8cf" opacity="0.85"/>
      <circle cx="63" cy="48" r="4.5" fill="#ffc8cf" opacity="0.85"/>
    </g>

    <!-- Alice (orange tabby) -->
    <g id="alice" transform="translate(84 8)">
      <polygon points="18,10 8,1 5,18" fill="#d8c29a" stroke="#8e7b5f" stroke-width="2"/>
      <polygon points="55,10 65,1 68,18" fill="#d8c29a" stroke="#8e7b5f" stroke-width="2"/>
      <polygon points="17,11 10,5 8,15" fill="#ffd8a8"/>
      <polygon points="56,11 63,5 65,15" fill="#ffd8a8"/>
      <ellipse cx="36" cy="30" rx="28" ry="24" fill="#cfb68b" stroke="#8e7b5f" stroke-width="3"/>
      <path d="M20 26 l6 -3 M28 24 l6 -3 M46 24 l6 3 M54 26 l6 3" stroke="#bfa377" stroke-width="2" stroke-linecap="round"/>
      <ellipse cx="36" cy="35" rx="12" ry="8" fill="#e6d2aa"/>
      <ellipse cx="27" cy="30" rx="5" ry="4" fill="#fff"/>
      <ellipse cx="45" cy="30" rx="5" ry="4" fill="#fff"/>
      <circle cx="27" cy="30" r="2.2" fill="#2e2e2e"/>
      <circle cx="45" cy="30" r="2.2" fill="#2e2e2e"/>
      <polygon points="36,34 33,38 39,38" fill="#e78ea0"/>
      <path d="M32 38 q4 3 8 0" stroke="#8f7858" stroke-width="2" fill="none" stroke-linecap="round"/>
      <line x1="10" y1="34" x2="24" y2="34" stroke="#8f7858" stroke-width="2" stroke-linecap="round"/>
      <line x1="10" y1="38" x2="24" y2="37" stroke="#8f7858" stroke-width="2" stroke-linecap="round"/>
      <line x1="48" y1="34" x2="62" y2="34" stroke="#8f7858" stroke-width="2" stroke-linecap="round"/>
      <line x1="48" y1="37" x2="62" y2="38" stroke="#8f7858" stroke-width="2" stroke-linecap="round"/>
    </g>

    <!-- Olive (gray cat) -->
    <g id="olive" transform="translate(158 10)">
      <polygon points="16,10 8,2 5,18" fill="#9ea6b3" stroke="#707987" stroke-width="2"/>
      <polygon points="52,10 60,2 63,18" fill="#9ea6b3" stroke="#707987" stroke-width="2"/>
      <polygon points="16,10 11,6 10,14" fill="#d6dce8"/>
      <polygon points="52,10 57,6 58,14" fill="#d6dce8"/>
      <ellipse cx="34" cy="30" rx="26" ry="23" fill="#9ea6b3" stroke="#707987" stroke-width="3"/>
      <ellipse cx="34" cy="35" rx="11" ry="7" fill="#d6dce8"/>
      <ellipse cx="25" cy="30" rx="4.5" ry="3.8" fill="#fff"/>
      <ellipse cx="43" cy="30" rx="4.5" ry="3.8" fill="#fff"/>
      <circle cx="25" cy="30" r="2" fill="#2c2c2c"/>
      <circle cx="43" cy="30" r="2" fill="#2c2c2c"/>
      <polygon points="34,34 31,38 37,38" fill="#d6999c"/>
      <path d="M30 38 q4 3 8 0" stroke="#6e7783" stroke-width="2" fill="none" stroke-linecap="round"/>
      <line x1="8" y1="34" x2="22" y2="34" stroke="#6e7783" stroke-width="2" stroke-linecap="round"/>
      <line x1="8" y1="38" x2="22" y2="37" stroke="#6e7783" stroke-width="2" stroke-linecap="round"/>
      <line x1="46" y1="34" x2="60" y2="34" stroke="#6e7783" stroke-width="2" stroke-linecap="round"/>
      <line x1="46" y1="37" x2="60" y2="38" stroke="#6e7783" stroke-width="2" stroke-linecap="round"/>
    </g>

    <!-- Beatrice (black cat with pink eyes) -->
    <g id="beatrice" transform="translate(220 9)">
      <polygon points="14,12 7,3 4,19" fill="#21211f" stroke="#070b0e" stroke-width="2"/>
      <polygon points="48,12 55,3 58,19" fill="#21211f" stroke="#070b0e" stroke-width="2"/>
      <polygon points="14,12 10,8 8,16" fill="#5d5e53"/>
      <polygon points="48,12 52,8 54,16" fill="#5d5e53"/>
      <ellipse cx="31" cy="32" rx="25" ry="23" fill="#21211f" stroke="#070b0e" stroke-width="3"/>
      <ellipse cx="31" cy="37" rx="10" ry="7" fill="#5d5e53"/>
      <ellipse cx="22" cy="32" rx="4.5" ry="3.6" fill="#d9ebf3"/>
      <ellipse cx="40" cy="32" rx="4.5" ry="3.6" fill="#d9ebf3"/>
      <circle cx="22" cy="32" r="2" fill="#101010"/>
      <circle cx="40" cy="32" r="2" fill="#101010"/>
      <polygon points="31,36 28,40 34,40" fill="#a2ac82"/>
      <path d="M27 40 q4 3 8 0" stroke="#a2ac82" stroke-width="2" fill="none" stroke-linecap="round"/>
      <line x1="6" y1="35" x2="20" y2="35" stroke="#bfced5" stroke-width="2" stroke-linecap="round"/>
      <line x1="6" y1="39" x2="20" y2="38" stroke="#bfced5" stroke-width="2" stroke-linecap="round"/>
      <line x1="42" y1="35" x2="56" y2="35" stroke="#bfced5" stroke-width="2" stroke-linecap="round"/>
      <line x1="42" y1="38" x2="56" y2="39" stroke="#bfced5" stroke-width="2" stroke-linecap="round"/>
    </g>
  </g>
</svg>
